<svg xmlns="http://www.w3.org/2000/svg" xmlns:xlink="http://www.w3.org/1999/xlink" width="2000" zoomAndPan="magnify" viewBox="0 0 1500 1499.999933" height="2000" preserveAspectRatio="xMidYMid meet" version="1.0"><defs><g/><clipPath id="95cc7bd2c0"><path d="M 0 0.320312 L 189.980469 0.320312 L 189.980469 190.300781 L 0 190.300781 Z M 0 0.320312 " clip-rule="nonzero"/></clipPath><clipPath id="1dfbf13f72"><path d="M 0.363281 0.683594 L 189.980469 0.683594 L 189.980469 190.300781 L 0.363281 190.300781 Z M 0.363281 0.683594 " clip-rule="nonzero"/></clipPath><clipPath id="894ece421d"><rect x="0" width="190" y="0" height="191"/></clipPath><clipPath id="b0bf026de6"><path d="M 122.445312 122.765625 L 189.855469 122.765625 L 189.855469 190.175781 L 122.445312 190.175781 Z M 122.445312 122.765625 " clip-rule="nonzero"/></clipPath><clipPath id="df1872bdea"><path d="M 255 0.320312 L 1140.480469 0.320312 L 1140.480469 190 L 255 190 Z M 255 0.320312 " clip-rule="nonzero"/></clipPath><clipPath id="c4a0158aca"><rect x="0" width="886" y="0" height="190"/></clipPath><clipPath id="2c96f54a9f"><rect x="0" width="1141" y="0" height="191"/></clipPath></defs><g transform="matrix(1, 0, 0, 1, 150, 652)"><g clip-path="url(#2c96f54a9f)"><g clip-path="url(#95cc7bd2c0)"><g transform="matrix(1, 0, 0, 1, 0, 0.000000000000113687)"><g clip-path="url(#894ece421d)"><g clip-path="url(#1dfbf13f72)"><path fill="#000000" d="M 0 190.664062 C 105.125 190.664062 190.34375 105.445312 190.34375 0.320312 L 0 0.320312 Z M 0 190.664062 " fill-opacity="1" fill-rule="nonzero"/></g></g></g></g><g clip-path="url(#b0bf026de6)"><path fill="#000000" d="M 190.355469 122.765625 C 152.847656 122.765625 122.445312 153.167969 122.445312 190.675781 L 190.355469 190.675781 Z M 190.355469 122.765625 " fill-opacity="1" fill-rule="nonzero"/></g><g clip-path="url(#df1872bdea)"><g transform="matrix(1, 0, 0, 1, 255, 0.000000000000113687)"><g clip-path="url(#c4a0158aca)"><g fill="#000000" fill-opacity="1"><g transform="translate(0.1616, 151.367666)"><g><path d="M 58.84375 3.21875 C 51.289062 3.21875 44.34375 1.765625 38 -1.140625 C 31.65625 -4.054688 26.195312 -8.113281 21.625 -13.3125 C 17.050781 -18.507812 13.5 -24.535156 10.96875 -31.390625 C 8.4375 -38.253906 7.171875 -45.601562 7.171875 -53.4375 C 7.171875 -61.269531 8.398438 -68.597656 10.859375 -75.421875 C 13.316406 -82.242188 16.847656 -88.253906 21.453125 -93.453125 C 26.066406 -98.648438 31.5625 -102.722656 37.9375 -105.671875 C 44.320312 -108.617188 51.394531 -110.09375 59.15625 -110.09375 C 64.976562 -110.09375 70.257812 -109.066406 75 -107.015625 C 79.75 -104.972656 83.835938 -102.375 87.265625 -99.21875 C 90.703125 -96.070312 93.351562 -92.800781 95.21875 -89.40625 L 94.703125 -100.53125 L 94.703125 -146.375 L 119.765625 -146.375 L 119.765625 0 L 95.84375 0 L 95.84375 -17.984375 C 93.769531 -14.242188 90.960938 -10.757812 87.421875 -7.53125 C 83.890625 -4.3125 79.734375 -1.71875 74.953125 0.25 C 70.171875 2.226562 64.800781 3.21875 58.84375 3.21875 Z M 63.421875 -19.953125 C 67.785156 -19.953125 71.875 -20.800781 75.6875 -22.5 C 79.5 -24.195312 82.84375 -26.570312 85.71875 -29.625 C 88.59375 -32.675781 90.84375 -36.226562 92.46875 -40.28125 C 94.09375 -44.332031 94.90625 -48.71875 94.90625 -53.4375 C 94.90625 -58.144531 94.109375 -62.507812 92.515625 -66.53125 C 90.921875 -70.550781 88.6875 -74.085938 85.8125 -77.140625 C 82.9375 -80.191406 79.59375 -82.566406 75.78125 -84.265625 C 71.96875 -85.960938 67.847656 -86.8125 63.421875 -86.8125 C 57.523438 -86.8125 52.1875 -85.367188 47.40625 -82.484375 C 42.625 -79.609375 38.847656 -75.675781 36.078125 -70.6875 C 33.304688 -65.695312 31.921875 -59.945312 31.921875 -53.4375 C 31.921875 -47.125 33.269531 -41.4375 35.96875 -36.375 C 38.675781 -31.320312 42.398438 -27.320312 47.140625 -24.375 C 51.890625 -21.425781 57.316406 -19.953125 63.421875 -19.953125 Z M 63.421875 -19.953125 "/></g></g></g><g fill="#000000" fill-opacity="1"><g transform="translate(120.511706, 151.367666)"><g><path d="M 63.3125 3.21875 C 55.195312 3.21875 47.707031 1.765625 40.84375 -1.140625 C 33.988281 -4.054688 28.046875 -8.113281 23.015625 -13.3125 C 17.992188 -18.507812 14.097656 -24.535156 11.328125 -31.390625 C 8.554688 -38.253906 7.171875 -45.601562 7.171875 -53.4375 C 7.171875 -61.269531 8.554688 -68.597656 11.328125 -75.421875 C 14.097656 -82.242188 17.992188 -88.253906 23.015625 -93.453125 C 28.046875 -98.648438 33.988281 -102.722656 40.84375 -105.671875 C 47.707031 -108.617188 55.234375 -110.09375 63.421875 -110.09375 C 71.660156 -110.09375 79.210938 -108.617188 86.078125 -105.671875 C 92.941406 -102.722656 98.898438 -98.648438 103.953125 -93.453125 C 109.015625 -88.253906 112.929688 -82.242188 115.703125 -75.421875 C 118.472656 -68.597656 119.859375 -61.269531 119.859375 -53.4375 C 119.859375 -45.53125 118.472656 -38.164062 115.703125 -31.34375 C 112.929688 -24.519531 109.015625 -18.507812 103.953125 -13.3125 C 98.898438 -8.113281 92.925781 -4.054688 86.03125 -1.140625 C 79.132812 1.765625 71.5625 3.21875 63.3125 3.21875 Z M 63.515625 -20.171875 C 69.546875 -20.171875 74.914062 -21.609375 79.625 -24.484375 C 84.34375 -27.359375 88.066406 -31.289062 90.796875 -36.28125 C 93.535156 -41.269531 94.90625 -46.988281 94.90625 -53.4375 C 94.90625 -59.882812 93.535156 -65.617188 90.796875 -70.640625 C 88.066406 -75.660156 84.34375 -79.609375 79.625 -82.484375 C 74.914062 -85.367188 69.546875 -86.8125 63.515625 -86.8125 C 57.554688 -86.8125 52.203125 -85.367188 47.453125 -82.484375 C 42.703125 -79.609375 38.957031 -75.660156 36.21875 -70.640625 C 33.488281 -65.617188 32.125 -59.882812 32.125 -53.4375 C 32.125 -46.988281 33.488281 -41.269531 36.21875 -36.28125 C 38.957031 -31.289062 42.703125 -27.359375 47.453125 -24.484375 C 52.203125 -21.609375 57.554688 -20.171875 63.515625 -20.171875 Z M 63.515625 -20.171875 "/></g></g></g><g fill="#000000" fill-opacity="1"><g transform="translate(233.481605, 151.367666)"><g><path d="M 98.65625 0 L 6.546875 0 L 6.546875 -15.59375 L 61.953125 -85.65625 L 9.359375 -85.65625 L 9.359375 -106.875 L 96.15625 -106.875 L 96.15625 -91.0625 L 41.171875 -21.203125 L 98.65625 -21.203125 Z M 98.65625 0 "/></g></g></g><g fill="#000000" fill-opacity="1"><g transform="translate(322.959581, 151.367666)"><g><path d="M 63.3125 3.21875 C 55.195312 3.21875 47.707031 1.765625 40.84375 -1.140625 C 33.988281 -4.054688 28.046875 -8.113281 23.015625 -13.3125 C 17.992188 -18.507812 14.097656 -24.535156 11.328125 -31.390625 C 8.554688 -38.253906 7.171875 -45.601562 7.171875 -53.4375 C 7.171875 -61.269531 8.554688 -68.597656 11.328125 -75.421875 C 14.097656 -82.242188 17.992188 -88.253906 23.015625 -93.453125 C 28.046875 -98.648438 33.988281 -102.722656 40.84375 -105.671875 C 47.707031 -108.617188 55.234375 -110.09375 63.421875 -110.09375 C 71.660156 -110.09375 79.210938 -108.617188 86.078125 -105.671875 C 92.941406 -102.722656 98.898438 -98.648438 103.953125 -93.453125 C 109.015625 -88.253906 112.929688 -82.242188 115.703125 -75.421875 C 118.472656 -68.597656 119.859375 -61.269531 119.859375 -53.4375 C 119.859375 -45.53125 118.472656 -38.164062 115.703125 -31.34375 C 112.929688 -24.519531 109.015625 -18.507812 103.953125 -13.3125 C 98.898438 -8.113281 92.925781 -4.054688 86.03125 -1.140625 C 79.132812 1.765625 71.5625 3.21875 63.3125 3.21875 Z M 63.515625 -20.171875 C 69.546875 -20.171875 74.914062 -21.609375 79.625 -24.484375 C 84.34375 -27.359375 88.066406 -31.289062 90.796875 -36.28125 C 93.535156 -41.269531 94.90625 -46.988281 94.90625 -53.4375 C 94.90625 -59.882812 93.535156 -65.617188 90.796875 -70.640625 C 88.066406 -75.660156 84.34375 -79.609375 79.625 -82.484375 C 74.914062 -85.367188 69.546875 -86.8125 63.515625 -86.8125 C 57.554688 -86.8125 52.203125 -85.367188 47.453125 -82.484375 C 42.703125 -79.609375 38.957031 -75.660156 36.21875 -70.640625 C 33.488281 -65.617188 32.125 -59.882812 32.125 -53.4375 C 32.125 -46.988281 33.488281 -41.269531 36.21875 -36.28125 C 38.957031 -31.289062 42.703125 -27.359375 47.453125 -24.484375 C 52.203125 -21.609375 57.554688 -20.171875 63.515625 -20.171875 Z M 63.515625 -20.171875 "/></g></g></g><g fill="#000000" fill-opacity="1"><g transform="translate(435.92948, 151.367666)"><g/></g></g><g fill="#000000" fill-opacity="1"><g transform="translate(473.746009, 151.367666)"><g><path d="M 80.46875 0 L 58.734375 0 C 55.546875 0 52.269531 -0.289062 48.90625 -0.875 C 45.550781 -1.46875 42.347656 -2.5625 39.296875 -4.15625 C 36.242188 -5.75 33.519531 -8.050781 31.125 -11.0625 C 28.738281 -14.082031 26.832031 -18 25.40625 -22.8125 C 23.988281 -27.632812 23.28125 -33.578125 23.28125 -40.640625 L 23.28125 -85.25 L 1.140625 -85.25 L 1.140625 -106.875 L 23.28125 -106.875 L 23.28125 -138.15625 L 48.4375 -138.375 L 48.4375 -106.875 L 80.46875 -106.875 L 80.46875 -85.25 L 48.4375 -85.25 L 48.4375 -39.5 C 48.4375 -34.507812 49.164062 -30.660156 50.625 -27.953125 C 52.082031 -25.253906 54.003906 -23.398438 56.390625 -22.390625 C 58.785156 -21.390625 61.300781 -20.890625 63.9375 -20.890625 L 80.46875 -20.890625 Z M 80.46875 0 "/></g></g></g><g fill="#000000" fill-opacity="1"><g transform="translate(545.760961, 151.367666)"><g><path d="M 116.4375 -55.3125 C 116.4375 -53.988281 116.398438 -52.738281 116.328125 -51.5625 C 116.253906 -50.382812 116.113281 -48.789062 115.90625 -46.78125 L 32.4375 -46.78125 C 33.332031 -40.957031 35.179688 -36 37.984375 -31.90625 C 40.796875 -27.820312 44.28125 -24.6875 48.4375 -22.5 C 52.601562 -20.320312 57.144531 -19.234375 62.0625 -19.234375 C 68.4375 -19.234375 73.597656 -20.5 77.546875 -23.03125 C 81.503906 -25.5625 84.382812 -29.078125 86.1875 -33.578125 L 113.625 -33.578125 C 112.3125 -28.796875 110.144531 -24.1875 107.125 -19.75 C 104.113281 -15.3125 100.425781 -11.378906 96.0625 -7.953125 C 91.695312 -4.523438 86.6875 -1.804688 81.03125 0.203125 C 75.382812 2.210938 69.234375 3.21875 62.578125 3.21875 C 54.546875 3.21875 47.148438 1.75 40.390625 -1.1875 C 33.628906 -4.132812 27.769531 -8.207031 22.8125 -13.40625 C 17.863281 -18.601562 14.019531 -24.632812 11.28125 -31.5 C 8.539062 -38.363281 7.171875 -45.675781 7.171875 -53.4375 C 7.171875 -61.269531 8.539062 -68.597656 11.28125 -75.421875 C 14.019531 -82.242188 17.863281 -88.253906 22.8125 -93.453125 C 27.769531 -98.648438 33.628906 -102.722656 40.390625 -105.671875 C 47.148438 -108.617188 54.546875 -110.09375 62.578125 -110.09375 C 70.617188 -110.09375 77.945312 -108.632812 84.5625 -105.71875 C 91.1875 -102.8125 96.867188 -98.8125 101.609375 -93.71875 C 106.359375 -88.625 110.015625 -82.785156 112.578125 -76.203125 C 115.148438 -69.617188 116.4375 -62.65625 116.4375 -55.3125 Z M 33.46875 -66.21875 L 90.75 -66.21875 C 90.40625 -70.238281 88.914062 -73.894531 86.28125 -77.1875 C 83.644531 -80.476562 80.25 -83.128906 76.09375 -85.140625 C 71.9375 -87.148438 67.398438 -88.15625 62.484375 -88.15625 C 58.253906 -88.15625 54.195312 -87.375 50.3125 -85.8125 C 46.4375 -84.257812 43.023438 -81.867188 40.078125 -78.640625 C 37.128906 -75.421875 34.925781 -71.28125 33.46875 -66.21875 Z M 33.46875 -66.21875 "/></g></g></g><g fill="#000000" fill-opacity="1"><g transform="translate(653.84537, 151.367666)"><g><path d="M 62.375 3.21875 C 54.40625 3.21875 47.054688 1.75 40.328125 -1.1875 C 33.609375 -4.132812 27.769531 -8.207031 22.8125 -13.40625 C 17.863281 -18.601562 14.019531 -24.632812 11.28125 -31.5 C 8.539062 -38.363281 7.171875 -45.675781 7.171875 -53.4375 C 7.171875 -61.195312 8.539062 -68.488281 11.28125 -75.3125 C 14.019531 -82.144531 17.863281 -88.175781 22.8125 -93.40625 C 27.769531 -98.632812 33.609375 -102.722656 40.328125 -105.671875 C 47.054688 -108.617188 54.40625 -110.09375 62.375 -110.09375 C 71.59375 -110.09375 79.820312 -108.304688 87.0625 -104.734375 C 94.300781 -101.171875 100.363281 -96.300781 105.25 -90.125 C 110.144531 -83.957031 113.59375 -76.957031 115.59375 -69.125 L 89.921875 -69.125 C 87.566406 -75.09375 83.925781 -79.515625 79 -82.390625 C 74.082031 -85.265625 68.578125 -86.703125 62.484375 -86.703125 C 58.597656 -86.703125 54.851562 -85.957031 51.25 -84.46875 C 47.644531 -82.976562 44.40625 -80.8125 41.53125 -77.96875 C 38.65625 -75.125 36.367188 -71.640625 34.671875 -67.515625 C 32.972656 -63.390625 32.125 -58.695312 32.125 -53.4375 C 32.125 -48.164062 32.972656 -43.46875 34.671875 -39.34375 C 36.367188 -35.21875 38.65625 -31.71875 41.53125 -28.84375 C 44.40625 -25.96875 47.660156 -23.785156 51.296875 -22.296875 C 54.941406 -20.804688 58.671875 -20.0625 62.484375 -20.0625 C 68.578125 -20.0625 74.082031 -21.566406 79 -24.578125 C 83.925781 -27.597656 87.566406 -32.4375 89.921875 -39.09375 L 115.5 -39.09375 C 113.695312 -30.84375 110.332031 -23.53125 105.40625 -17.15625 C 100.488281 -10.78125 94.375 -5.789062 87.0625 -2.1875 C 79.75 1.414062 71.519531 3.21875 62.375 3.21875 Z M 62.375 3.21875 "/></g></g></g><g fill="#000000" fill-opacity="1"><g transform="translate(760.890319, 151.367666)"><g><path d="M 39.921875 0 L 14.765625 0 L 14.765625 -146.375 L 39.921875 -146.375 L 39.921875 -102.8125 L 39.296875 -90.859375 C 42.617188 -96.679688 47.378906 -101.34375 53.578125 -104.84375 C 59.785156 -108.34375 66.976562 -110.09375 75.15625 -110.09375 C 89.507812 -110.09375 100.253906 -105.535156 107.390625 -96.421875 C 114.523438 -87.304688 118.09375 -74.363281 118.09375 -57.59375 L 118.09375 0 L 92.9375 0 L 92.9375 -57.078125 C 92.9375 -67.679688 90.71875 -75.300781 86.28125 -79.9375 C 81.84375 -84.582031 75.816406 -86.90625 68.203125 -86.90625 C 64.523438 -86.90625 60.988281 -86.125 57.59375 -84.5625 C 54.195312 -83.007812 51.164062 -80.8125 48.5 -77.96875 C 45.832031 -75.125 43.734375 -71.707031 42.203125 -67.71875 C 40.679688 -63.738281 39.921875 -59.359375 39.921875 -54.578125 Z M 39.921875 0 "/></g></g></g></g></g></g></g></g></svg>