<svg xmlns="http://www.w3.org/2000/svg" xmlns:xlink="http://www.w3.org/1999/xlink" width="2000" zoomAndPan="magnify" viewBox="0 0 1500 1499.999933" height="2000" preserveAspectRatio="xMidYMid meet" version="1.0"><defs><clipPath id="badf586072"><path d="M 401.535156 403.984375 L 1076.535156 403.984375 L 1076.535156 1078.980469 L 401.535156 1078.980469 Z M 401.535156 403.984375 " clip-rule="nonzero"/></clipPath><clipPath id="01da054f2a"><path d="M 0.535156 0.984375 L 675.535156 0.984375 L 675.535156 675.980469 L 0.535156 675.980469 Z M 0.535156 0.984375 " clip-rule="nonzero"/></clipPath><clipPath id="029a57dba9"><rect x="0" width="676" y="0" height="676"/></clipPath><clipPath id="b85a6b7ac5"><path d="M 438.179688 449.355469 L 1039.679688 449.355469 L 1039.679688 1050.855469 L 438.179688 1050.855469 Z M 438.179688 449.355469 " clip-rule="nonzero"/></clipPath><clipPath id="f9b9b23ddf"><path d="M 0.390625 0.355469 L 601.679688 0.355469 L 601.679688 601.644531 L 0.390625 601.644531 Z M 0.390625 0.355469 " clip-rule="nonzero"/></clipPath><clipPath id="67a8875ffc"><rect x="0" width="602" y="0" height="602"/></clipPath><clipPath id="4d12462189"><path d="M 825.210938 449.320312 L 1039.710938 449.320312 L 1039.710938 663.820312 L 825.210938 663.820312 Z M 825.210938 449.320312 " clip-rule="nonzero"/></clipPath></defs><g clip-path="url(#badf586072)"><g transform="matrix(1, 0, 0, 1, 401, 403)"><g clip-path="url(#029a57dba9)"><g clip-path="url(#01da054f2a)"><path fill="#0a0a0a" d="M 0.535156 0.984375 L 675.535156 0.984375 L 675.535156 675.980469 L 0.535156 675.980469 Z M 0.535156 0.984375 " fill-opacity="1" fill-rule="nonzero"/></g></g></g></g><g clip-path="url(#b85a6b7ac5)"><g transform="matrix(1, 0, 0, 1, 438, 449)"><g clip-path="url(#67a8875ffc)"><g clip-path="url(#f9b9b23ddf)"><path fill="#d4ff00" d="M 601.890625 601.855469 C 601.890625 269.539062 332.496094 0.144531 0.183594 0.144531 L 0.183594 601.855469 Z M 601.890625 601.855469 " fill-opacity="1" fill-rule="nonzero"/></g></g></g></g><g clip-path="url(#4d12462189)"><path fill="#d4ff00" d="M 825.210938 449.144531 C 825.210938 567.703125 921.324219 663.816406 1039.886719 663.820312 L 1039.886719 449.144531 Z M 825.210938 449.144531 " fill-opacity="1" fill-rule="nonzero"/></g></svg>